<svg width="684" height="696" viewBox="0 0 684 696" fill="none" stroke="#d9d9d9" xmlns="http://www.w3.org/2000/svg">
<path d="M373.603 664L282.729 613.241L178.582 605.188L125.742 569.071V558.089L111.192 552.232L92.3026 484.635L102.258 487.075L98.9395 468.773L88.7289 466.333L86.4316 468.773L78.0079 459.744V449.25L65.5 448.03L60.9053 441.929L46.1 438.513L50.1842 415.574L47.6316 405.08L39.7184 398.247H24.6579H20.3184L17 386.778L26.4447 374.576C30.8693 374.494 39.7184 374.088 39.7184 373.112C39.7184 371.891 32.5711 366.523 32.5711 365.547C32.5711 364.766 32.5711 361.967 32.5711 360.666L58.3526 335.042L52.9921 327.477C54.4386 324.305 57.5358 317.521 58.3526 315.764C59.1695 314.007 58.693 307.385 58.3526 304.294L62.1816 298.193V287.7H73.1579L81.8368 291.116H87.4526L84.3895 285.503L92.3026 278.426L97.4079 282.331V289.652L138.505 256.952H143.355L145.908 254.999V248.654L168.626 234.988L183.432 220.346L180.113 217.906L178.326 208.389L183.432 202.776H188.282L185.729 198.383L188.282 193.503L194.408 182.033L196.705 173.004L201.3 170.075L185.729 165.195L194.408 128.346L203.342 119.072L234.739 130.054L239.334 126.393L256.182 132.738L250.566 116.876L238.568 110.043L244.184 103.698C249.289 104.105 259.296 104.918 258.479 104.918C257.662 104.918 259.33 102.966 260.266 101.99L254.905 98.0855L262.818 91.4965L263.839 87.1039H261.542L263.839 81.9792L253.629 81.0031L258.479 69.0454L265.626 66.8491L269.711 63.6767L268.689 56.8437L275.837 54.4034L279.411 43.9099L285.026 37.321L297.789 30L303.15 32.1963L301.874 41.4696L310.297 52.6952L309.787 67.5812L305.958 71.2417L304.937 75.1463H301.874L295.237 87.1039L288.6 96.1332L292.939 97.1093L291.663 111.263L306.979 124.441L327.911 123.465L364.668 139.327L360.074 152.261L383.303 204.972L372.837 227.911L371.305 252.559L445.587 291.116L443.8 299.657H440.482L462.434 319.424H468.816L472.134 330.894L487.45 346.756L473.411 434.12L498.682 462.428L487.705 465.6L478.771 474.386L484.897 478.778V500.009L498.682 510.991L490.258 526.853L494.853 540.031L500.213 541.739L502 560.774L494.853 579.808L486.174 618.61L471.368 631.788L464.732 627.151L410.361 618.61L395.3 627.151L373.603 664Z" />
<path d="M373.829 664.235L299.77 592.802L201.324 559.288L160.05 511.383L163.023 500.788L150.551 491.541L150.602 421.657L159.559 426.472L161.309 407.994L152.104 403.116L149.224 404.902L143.529 394.109L146.37 383.985L134.616 379.716L131.828 372.695L118.448 365.739L128.605 344.617L128.98 333.863L123.184 325.315L108.633 321.592L104.44 320.519L104.339 308.633L116.768 299.196C121.065 300.212 129.725 302.007 129.99 301.065C130.32 299.888 124.868 292.941 125.132 292C125.344 291.246 126.101 288.547 126.454 287.291L158.301 268.943L155.17 260.319C157.427 257.616 162.256 251.837 163.521 250.344C164.786 248.85 166.118 242.345 166.626 239.278L171.978 234.339L174.819 224.215L185.424 226.928L192.884 232.37L198.31 233.758L196.87 227.586L206.432 222.714L210.308 227.743L208.326 234.806L256.887 213.416L261.573 214.615L264.568 213.363L266.286 207.241L291.936 199.673L310.205 189.206L307.66 186.032L308.51 176.408L314.963 172.255L319.649 173.454L318.372 168.585L322.159 164.507L331.184 154.956L335.848 146.813L341.081 145.124L327.357 136.566L345.72 103.161L356.863 96.4225L384.225 114.778L389.656 112.382L404.216 122.668L403.085 105.977L393.343 96.4188L400.487 91.6857C405.309 93.34 414.757 96.5982 413.968 96.3963C413.179 96.1944 415.318 94.7231 416.487 94.0128L412.365 88.9208L421.794 84.52L423.97 80.5346L421.751 79.9667L425.358 75.5905L415.757 72.1248L423.68 61.7874L431.181 61.4352L435.986 59.3841L436.849 52.5395L444.416 51.9519L450.71 42.7116L457.92 37.743L472.233 33.8348L476.818 37.2787L473.074 45.9098L478.174 58.822L473.65 73.0574L468.96 75.6424L466.916 79.157L463.956 78.3998L454.306 88.2956L445.449 95.3662L449.378 97.3806L444.312 110.72L455.542 127.22L476.031 131.452L507.251 155.841L499.31 167.184L507.482 223.779L491.159 243.323L483.006 266.724L544.337 322.284L540.299 330.082L537.092 329.262L552.951 353.759L559.117 355.336L559.218 367.222L569.721 386.311L532.502 467.126L549.255 500.683L537.791 501.031L526.78 507.298L531.51 513.05L525.762 533.533L536.107 547.535L523.673 560.756L524.545 574.605L529.261 577.578L525.834 596.384L513.775 612.981L494.884 648.27L477.011 657.324L471.854 651.21L421.634 629.53L404.77 634.047L373.829 664.235Z" />
<path d="M374.163 664.687L321.991 577.386L235.984 520.687L209.102 464.215L214.846 454.716L205.305 442.702L224.298 375.211L231.646 382.076L238.344 364.66L230.776 357.673L227.509 358.687L224.935 346.854L230.423 337.777L220.226 330.749L219.437 323.278L208.399 313.253L223.935 295.361L227.212 285.065L223.931 275.376L210.885 268.184L207.126 266.112L210.25 254.607L224.814 248.562C228.689 250.605 236.568 254.479 237.078 253.634C237.716 252.579 234.333 244.522 234.844 243.678C235.252 243.002 236.716 240.582 237.396 239.456L273.132 229.604L272.446 220.5C275.358 218.447 281.589 214.058 283.216 212.928C284.843 211.798 287.893 205.843 289.215 203.007L295.723 199.558L301.212 190.481L310.72 195.723L316.451 202.823L321.316 205.504L321.598 199.187L332.155 196.844L334.535 202.659L330.706 208.992L383.411 200.331L387.612 202.647L390.845 202.178L394.163 196.689L420.991 195.717L441.475 190.122L439.877 186.427L443.307 177.341L450.665 174.924L454.867 177.24L454.953 172.221L459.717 169.219L471.023 162.223L477.736 155.51L483.248 155.171L472.312 143.514L499.104 115.784L511.694 112.029L533.149 136.521L539.043 135.549L550.319 149.083L553.751 132.68L546.932 121.041L555.115 118.234C559.325 121.024 567.568 126.506 566.86 126.116C566.153 125.726 568.618 124.834 569.94 124.436L567.338 118.499L577.64 116.578L580.822 113.266L578.832 112.169L583.502 108.834L575.168 103.114L585.623 95.0864L592.964 96.5997L598.161 95.8059L600.851 89.4079L608.318 90.7101L616.903 83.34L625.214 80.3224L640.099 80.0846L643.594 84.5441L637.638 91.9559L639.064 105.688L630.836 118.321L625.604 119.659L622.677 122.548L620.024 121.086L608.02 128.26L597.548 132.9L600.797 135.817L592.288 147.45L598.663 166.163L617.306 175.314L640.851 206.587L630.106 215.581L622.658 272.268L601.594 287.112L587.375 307.7L631.555 376.523L625.54 383.058L622.665 381.473L631.343 409.054L636.872 412.101L633.747 423.607L638.718 444.641L580.861 513.505L587.946 550.059L576.778 547.562L564.443 550.894L567.453 557.619L556.348 575.984L562.545 592.065L546.951 601.763L544.039 615.356L547.789 619.393L539.381 636.711L523.234 649.763L495.42 679.181L475.702 683.509L472.378 676.329L429.746 642.978L412.232 643.174L374.163 664.687Z" />
</svg>
