<svg width="24" height="24" viewBox="0 0 24 24" fill="none" xmlns="http://www.w3.org/2000/svg">
<path d="M23.5 1.95833V23.0417C23.5 23.5711 23.0711 24 22.5417 24H11.5208L1.9375 14.4167L1.72667 14.2058C1.59681 14.076 1.51631 13.8963 1.51631 13.6979C1.51631 13.4071 1.68881 13.1565 1.9375 13.0439C2.02806 13.0022 2.12869 12.9792 2.23506 12.9792H10.5625C11.092 12.9792 11.5208 13.408 11.5208 13.9375V22.5625H22.0625V2.4375H1.9375V11.3021C1.9375 11.6265 1.72235 11.9006 1.42719 11.9897C1.36106 12.0103 1.2911 12.0208 1.21875 12.0208C0.822 12.0208 0.5 11.6988 0.5 11.3021V1.95833C0.5 1.42885 0.928854 1 1.45833 1H22.5417C23.0711 1 23.5 1.42885 23.5 1.95833Z" fill="black"/>
</svg>
