<?xml version="1.0" encoding="utf-8"?>
<!-- Generator: Adobe Illustrator 22.0.1, SVG Export Plug-In . SVG Version: 6.00 Build 0)  -->
<svg version="1.1" xmlns="http://www.w3.org/2000/svg" xmlns:xlink="http://www.w3.org/1999/xlink" x="0px" y="0px"
	 viewBox="0 0 24 24" style="enable-background:new 0 0 24 24;" xml:space="preserve">
  	<path class="st0" d="M22.7,6v9.9H21v-5.7l-2.6,2.4v2.9c0,1.9-0.6,3.7-1.7,5.1c-0.5,0.6-1.1,1.2-1.7,1.7c-0.3,0.2-0.6,0.4-0.9,0.6
		c-0.5,0.3-1.1,0.6-1.7,0.8c-0.8,0.3-1.7,0.4-2.6,0.4c-1.9,0-3.7-0.6-5.1-1.7c-0.6-0.5-1.2-1.1-1.7-1.7c-1.1-1.4-1.7-3.2-1.7-5.1V0
		h17.1v6h-1.7V1.7H3v13.7c0,3.8,3.1,6.9,6.9,6.9c0.9,0,1.8-0.2,2.6-0.5c0.6-0.3,1.2-0.6,1.7-1c1.6-1.3,2.6-3.2,2.6-5.4v-2.9
		l-1.6-1.4l-1-0.9v5.7h-1.7V6l1.7,1.6l2.6,2.4l0.9,0.8l0.9-0.8L21,7.6L22.7,6z"/>
</svg>
